#!OML:ASF F:\VICON\USERDATA\INSTALL\rory3\rory3.ASF
:FULLY-SPECIFIED
:DEGREES
245
root 4.74853 17.9298 17.8585 -24.3927 -79.1225 26.6133
lowerback 32.5301 0.766097 1.70471
upperback 6.15117 1.32693 3.30575
thorax -10.0006 0.325154 2.14332
lowerneck -10.9289 -0.339736 -2.43741
upperneck 10.0251 0.836906 -8.66072
head 4.85338 -0.302311 -2.23886
rclavicle 2.62396e-014 1.90833e-014
rhumerus -31.8436 -22.8958 -54.0842
rradius 89.2976
rwrist 7.7802
rhand -18.1111 7.98274
rfingers 7.12502
rthumb 8.16309 -21.8396
lclavicle 2.62396e-014 1.90833e-014
lhumerus -52.2929 7.03817 72.8419
lradius 59.4039
lwrist 14.4623
lhand -13.7034 50.2757
lfingers 7.12502
lthumb 12.4151 79.887
rfemur -16.9427 1.92213 18.6218
rtibia 49.0782
rfoot -19.8904 -9.33227
rtoes -0.0435641
lfemur -19.2694 -4.72392 -7.31223
ltibia 38.0504
lfoot -3.46709 -1.02908
ltoes -22.2107
246
root 4.80424 17.8683 18.0222 -23.3524 -79.5643 25.5803
lowerback 32.7056 0.757411 1.84359
upperback 6.11901 1.38394 3.49766
thorax -10.1108 0.343766 2.25257
lowerneck -11.1794 -0.206413 -2.41768
upperneck 9.98383 1.06261 -9.03742
head 4.89462 -0.223513 -2.34478
rclavicle 3.10104e-014 0
rhumerus -30.9089 -21.8744 -55.235
rradius 89.6209
rwrist 10.9358
rhand -18.7473 9.2205
rfingers 7.12502
rthumb 7.5491 -20.6248
lclavicle 3.10104e-014 0
lhumerus -52.1565 8.10316 72.9312
lradius 59.2053
lwrist 13.5616
lhand -13.9289 50.3302
lfingers 7.12502
lthumb 12.1976 79.9546
rfemur -17.1969 2.21014 18.4836
rtibia 49.1911
rfoot -20.1224 -10.3742
rtoes -5.89636
lfemur -19.4515 -4.56323 -6.1353
ltibia 38.5274
lfoot -2.98325 -0.663466
ltoes -23.6899
247
root 4.85869 17.7978 18.1909 -21.4717 -79.9692 23.5613
lowerback 32.9864 0.648681 2.24437
upperback 6.15031 1.397 3.71031
thorax -10.1819 0.330828 2.26067
lowerneck -11.395 -0.0837678 -2.70694
upperneck 9.81249 1.28286 -9.16103
head 4.88734 -0.136062 -2.31991
rclavicle -2.54444e-014 -4.77083e-015
rhumerus -29.9972 -20.5793 -56.463
rradius 89.8105
rwrist 13.9577
rhand -19.7074 10.258
rfingers 7.12502
rthumb 6.62227 -19.6185
lclavicle -2.54444e-014 -4.77083e-015
lhumerus -51.8539 9.06984 73.1852
lradius 58.8425
lwrist 12.725
lhand -14.0831 50.3859
lfingers 7.12502
lthumb 12.049 80.019
rfemur -17.3123 2.6487 18.371
rtibia 49.4818
rfoot -20.8491 -10.387
rtoes -6.34294
lfemur -19.4274 -4.70296 -4.73696
ltibia 38.8942
lfoot -2.60508 -0.399613
ltoes -21.2466
248
root 4.90925 17.7307 18.3689 -18.6249 -79.8751 20.3663
lowerback 33.4205 0.33249 2.94526
upperback 6.22698 1.25197 3.93663
thorax -10.2464 0.233736 2.18468
lowerneck -11.5721 -0.0466942 -3.01045
upperneck 9.63202 1.38089 -9.22793
head 4.86532 -0.103143 -2.28381
rclavicle 5.56597e-015 -2.06736e-014
rhumerus -29.3273 -18.8931 -58.3202
rradius 90.0773
rwrist 16.2025
rhand -21.8429 10.4944
rfingers 7.12502
rthumb 4.56046 -19.4365
lclavicle 5.56597e-015 -2.06736e-014
lhumerus -51.3419 9.71881 73.741
lradius 58.3196
lwrist 11.9765
lhand -14.4798 50.3084
lfingers 7.12502
lthumb 11.6665 79.9636
rfemur -17.191 2.64351 18.2567
rtibia 49.8955
rfoot -21.3942 -10.6667
rtoes -8.00951
lfemur -19.3165 -5.32537 -3.40493
ltibia 39.1101
lfoot -2.39768 0.00855528
ltoes -18.8225
249
root 4.96235 17.6653 18.5553 -16.8645 -79.6605 18.273
lowerback 33.8687 0.0514659 3.50167
upperback 6.27341 1.11391 4.15863
thorax -10.3535 0.144438 2.18177
lowerneck -11.685 0.0132002 -3.10004
upperneck 9.51796 1.50807 -9.60767
head 4.85848 -0.0715508 -2.37846
rclavicle 3.18055e-015 -1.59028e-014
rhumerus -28.5208 -17.1312 -59.6117
rradius 89.6113
rwrist 18.6422
rhand -23.5549 11.3271
rfingers 7.12502
rthumb 2.90718 -18.6329
lclavicle 3.18055e-015 -1.59028e-014
lhumerus -50.8801 10.4475 74.4026
lradius 57.7201
lwrist 11.1389
lhand -15.1338 50.2168
lfingers 7.12502
lthumb 11.0357 79.9067
rfemur -17.1231 2.44471 17.8277
rtibia 50.4062
rfoot -22.327 -10.4187
rtoes -7.82839
lfemur -19.2443 -5.88133 -2.41938
ltibia 39.2193
lfoot -2.33135 0.511798
ltoes -18.294
250
root 5.01773 17.6039 18.7198 -17.2809 -80.3957 18.9353
lowerback 33.7561 0.400001 3.02509
upperback 6.32869 1.4074 4.47635
thorax -10.2869 0.288101 2.66185
lowerneck -11.8353 0.164557 -3.45022
upperneck 9.36631 1.7759 -9.74892
head 4.84764 0.036352 -2.34535
rclavicle 1.59028e-015 -6.67916e-014
rhumerus -27.4725 -15.018 -60.7972
rradius 88.6175
rwrist 21.1875
rhand -25.257 11.8919
rfingers 7.12502
rthumb 1.26337 -18.0841
lclavicle 1.59028e-015 -6.67916e-014
lhumerus -50.4488 11.5163 74.9792
lradius 57.0965
lwrist 10.2191
lhand -15.8764 50.2428
lfingers 7.12502
lthumb 10.3194 79.9696
rfemur -17.9152 3.26444 17.2148
rtibia 50.956
rfoot -23.0125 -9.95135
rtoes -6.05635
lfemur -19.277 -5.52936 -1.58457
ltibia 39.1996
lfoot -2.40939 1.28814
ltoes -17.5444
251
root 5.06974 17.5452 18.8808 -17.1731 -80.3466 18.5999
lowerback 34.1493 0.412518 2.71657
upperback 6.46417 1.34046 4.8161
thorax -10.3127 0.251662 3.21866
lowerneck -12.201 0.224569 -3.74041
upperneck 9.35435 1.94679 -9.96279
head 4.9142 0.0807355 -2.35441
rclavicle 2.22639e-014 -7.95139e-015
rhumerus -26.2856 -12.8249 -61.8843
rradius 87.1357
rwrist 23.6792
rhand -27.0216 12.9924
rfingers 7.12502
rthumb -0.440929 -16.9869
lclavicle 2.22639e-014 -7.95139e-015
lhumerus -49.8101 12.3737 75.7396
lradius 56.4607
lwrist 9.49079
lhand -16.6535 50.288
lfingers 7.12502
lthumb 9.56967 80.0507
rfemur -17.9878 3.4783 16.6139
rtibia 51.4362
rfoot -23.6606 -9.64474
rtoes -4.51115
lfemur -19.1241 -5.70145 -0.885679
ltibia 39.012
lfoot -2.26554 1.89312
ltoes -17.2936
252
root 5.11729 17.4927 19.0533 -14.9376 -80.208 16.1538
lowerback 34.3841 0.213609 3.05586
upperback 6.59736 1.21712 5.09219
thorax -10.2473 0.173819 3.38309
lowerneck -12.4923 0.227987 -3.99198
upperneck 9.38376 2.02681 -10.083
head 4.97648 0.089125 -2.34733
rclavicle -3.26007e-014 -5.40694e-014
rhumerus -25.1108 -10.8369 -62.7563
rradius 85.0732
rwrist 25.829
rhand -28.7398 14.6784
rfingers 7.12502
rthumb -2.10045 -15.291
lclavicle -3.26007e-014 -5.40694e-014
lhumerus -48.9475 12.7855 76.5849
lradius 55.5589
lwrist 8.70772
lhand -17.3668 50.5309
lfingers 7.12502
lthumb 8.88136 80.324
rfemur -18.0178 3.20897 16.3096
rtibia 51.8485
rfoot -24.0923 -9.46347
rtoes -5.03247
lfemur -19.0391 -5.92312 0.0984519
ltibia 38.6455
lfoot -2.18446 2.35443
ltoes -17.2651
253
root 5.15511 17.4486 19.2382 -14.5335 -80.0702 15.5358
lowerback 34.5311 0.115433 3.2727
upperback 6.7542 1.15811 5.20565
thorax -10.1213 0.131697 3.41221
lowerneck -12.6553 0.229223 -4.056
upperneck 9.34731 2.06145 -10.2282
head 4.9962 0.0889009 -2.38056
rclavicle -7.95139e-016 -1.27222e-014
rhumerus -24.1099 -9.17383 -63.5023
rradius 82.6844
rwrist 27.7033
rhand -30.5393 15.929
rfingers 7.12502
rthumb -3.83822 -14.0162
lclavicle -7.95139e-016 -1.27222e-014
lhumerus -48.0187 12.6861 77.5035
lradius 54.7361
lwrist 7.83946
lhand -17.7685 51.109
lfingers 7.12502
lthumb 8.49374 80.9182
rfemur -17.9325 3.02979 15.6388
rtibia 52.1745
rfoot -24.3325 -9.59159
rtoes -7.26001
lfemur -18.736 -6.45787 0.643736
ltibia 38.1207
lfoot -2.04869 3.16256
ltoes -17.0462
